HIERARCHY
ROOT Hips
{
	OFFSET 0.000000 0.000000 0.000000
	CHANNELS 6 Xposition Yposition Zposition Xrotation Yrotation Zrotation
	JOINT LeftUpLeg_virtual
	{
		OFFSET 0.000000 0.000000 0.000000
		CHANNELS 3 Xrotation Yrotation Zrotation
		JOINT LeftUpLeg
		{
			OFFSET 13.026900 -6.336304 -1.092800
			CHANNELS 3 Xrotation Yrotation Zrotation
			JOINT LeftLeg
			{
				OFFSET 0.524474 -46.096886 9.782700
				CHANNELS 3 Xrotation Yrotation Zrotation
				JOINT LeftFoot
				{
					OFFSET -0.524474 -53.427422 -12.948200
					CHANNELS 3 Xrotation Yrotation Zrotation
					JOINT LeftToeBase
					{
						OFFSET 0.192200 -14.009700 16.364100
						CHANNELS 3 Xrotation Yrotation Zrotation
						JOINT LeftToe_End
						{
							OFFSET -1.784700 -0.561700 9.474800
							CHANNELS 3 Xrotation Yrotation Zrotation
							End Site
							{
								OFFSET 0 0 0
							}
						}
					}
				}
			}
		}
	}
	JOINT RightUpLeg_virtual
	{
		OFFSET 0.000000 0.000000 0.000000
		CHANNELS 3 Xrotation Yrotation Zrotation
		JOINT RightUpLeg
		{
			OFFSET -12.883000 -6.336304 -1.092800
			CHANNELS 3 Xrotation Yrotation Zrotation
			JOINT RightLeg
			{
				OFFSET -0.524587 -46.096825 9.782800
				CHANNELS 3 Xrotation Yrotation Zrotation
				JOINT RightFoot
				{
					OFFSET 0.524587 -53.427383 -12.948300
					CHANNELS 3 Xrotation Yrotation Zrotation
					JOINT RightToeBase
					{
						OFFSET -0.192200 -14.009700 16.364100
						CHANNELS 3 Xrotation Yrotation Zrotation
						JOINT RightToe_End
						{
							OFFSET 1.784700 -0.561700 9.474800
							CHANNELS 3 Xrotation Yrotation Zrotation
							End Site
							{
								OFFSET 0 0 0
							}
						}
					}
				}
			}
		}
	}
	JOINT Spine_virtual
	{
		OFFSET 0.000000 0.000000 0.000000
		CHANNELS 3 Xrotation Yrotation Zrotation
		JOINT Spine
		{
			OFFSET 0.072000 7.257294 -0.789700
			CHANNELS 3 Xrotation Yrotation Zrotation
			JOINT Spine1
			{
				OFFSET 0.000000 12.508769 -0.658067
				CHANNELS 3 Xrotation Yrotation Zrotation
				JOINT Spine1_split
				{
					OFFSET 0.000000 12.508769 -0.658067
					CHANNELS 3 Xrotation Yrotation Zrotation
					JOINT Spine2
					{
						OFFSET 0.000000 12.508769 -0.658067
						CHANNELS 3 Xrotation Yrotation Zrotation
						JOINT Neck_virtual
						{
							OFFSET 0.000000 0.000000 0.000000
							CHANNELS 3 Xrotation Yrotation Zrotation
							JOINT Neck
							{
								OFFSET 0.000000 14.033295 7.520400
								CHANNELS 3 Xrotation Yrotation Zrotation
								JOINT Head
								{
									OFFSET 0.000000 8.198502 5.703100
									CHANNELS 3 Xrotation Yrotation Zrotation
									JOINT HeadTop_End
									{
										OFFSET 0.000000 17.760803 13.332701
										CHANNELS 3 Xrotation Yrotation Zrotation
										End Site
										{
											OFFSET 0 0 0
										}
									}
								}
							}
						}
						JOINT LeftShoulder_virtual
						{
							OFFSET 0.000000 0.000000 0.000000
							CHANNELS 3 Xrotation Yrotation Zrotation
							JOINT LeftShoulder
							{
								OFFSET 6.292450 5.785301 -0.669000
								CHANNELS 3 Xrotation Yrotation Zrotation
								JOINT LeftShoulder_split
								{
									OFFSET 6.292450 5.785301 -0.669000
									CHANNELS 3 Xrotation Yrotation Zrotation
									JOINT LeftArm
									{
										OFFSET 13.907140 -6.093903 1.965100
										CHANNELS 3 Xrotation Yrotation Zrotation
										JOINT LeftForeArm
										{
											OFFSET 34.140198 0.000000 0.000000
											CHANNELS 3 Xrotation Yrotation Zrotation
											JOINT LeftHand
											{
												OFFSET 40.960209 0.000000 0.000000
												CHANNELS 3 Xrotation Yrotation Zrotation
												End Site
												{
													OFFSET 0 0 0
												}
											}
										}
									}
								}
							}
						}
						JOINT RightShoulder_virtual
						{
							OFFSET 0.000000 0.000000 0.000000
							CHANNELS 3 Xrotation Yrotation Zrotation
							JOINT RightShoulder
							{
								OFFSET -6.292450 5.785301 -0.669000
								CHANNELS 3 Xrotation Yrotation Zrotation
								JOINT RightShoulder_split
								{
									OFFSET -6.292450 5.785301 -0.669000
									CHANNELS 3 Xrotation Yrotation Zrotation
									JOINT RightArm
									{
										OFFSET -13.907140 -6.093903 1.965100
										CHANNELS 3 Xrotation Yrotation Zrotation
										JOINT RightForeArm
										{
											OFFSET -34.140198 0.000000 0.000000
											CHANNELS 3 Xrotation Yrotation Zrotation
											JOINT RightHand
											{
												OFFSET -40.960209 0.000000 0.000000
												CHANNELS 3 Xrotation Yrotation Zrotation
												End Site
												{
													OFFSET 0 0 0
												}
											}
										}
									}
								}
							}
						}
					}
				}
			}
		}
	}
}
MOTION
Frames: 11
Frame Time: 0.03333333
-3.416310 97.678818 -6.279964 0.000000 0.000000 0.000000 1.711189 -52.922676 4.774039 -34.771107 16.513637 25.681496 42.923245 -0.609791 -5.411999 -7.710297 8.832330 -14.281821 2.464805 1.011287 -2.048213 0.000000 0.000000 0.000000 0.690381 -50.562261 4.198334 -31.007235 -3.511523 -21.541674 46.927026 10.283216 -5.661103 -15.705873 -5.065279 31.063875 4.607521 5.056597 -12.454979 0.000000 0.000000 0.000000 -2.974264 -44.946664 0.230018 10.400939 -3.330070 -1.017648 7.480008 -1.668117 -7.375016 0.298665 -0.486866 0.217478 0.000000 0.000000 0.000000 10.535134 0.404087 -5.028161 -1.776106 26.004694 -0.720919 -36.669247 -11.716503 10.086850 0.000000 0.000000 0.000000 10.065734 -1.021369 -6.141180 1.393124 -8.314544 -6.660301 5.667134 -11.600871 1.657458 -44.058432 17.204357 -30.406052 35.436517 -34.670535 22.539170 0.000000 0.000000 0.000000 7.752218 -2.206198 -6.733116 -7.193363 3.510726 1.777772 9.431666 -5.913941 5.863841 -51.160350 -5.945124 41.697366 93.050071 71.598346 -83.586708 0.000000 0.000000 0.000000 
-3.762465 97.476372 -6.646549 0.000000 0.000000 0.000000 1.712436 -53.003658 4.787551 -34.560860 16.714009 25.580071 43.303942 -0.854030 -5.254269 -8.248967 8.858247 -13.842434 2.272419 0.980702 -2.176340 0.000000 0.000000 0.000000 0.802700 -50.444543 4.134326 -30.889875 -3.844221 -21.516392 47.277115 10.372634 -5.634279 -16.294193 -5.477809 30.125673 6.023207 5.010354 -12.394163 0.000000 0.000000 0.000000 -2.973426 -44.810559 0.389069 10.400245 -3.557282 -1.151027 7.249697 -1.480205 -7.246671 0.080740 -0.403267 0.310925 0.000000 0.000000 0.000000 10.203777 0.439627 -4.921562 -3.169906 25.784989 0.529126 -36.907535 -12.258170 8.940550 0.000000 0.000000 0.000000 9.816905 -0.825258 -6.196764 1.493338 -7.728820 -6.451569 6.570432 -11.656964 1.934936 -45.154053 16.957432 -31.554579 36.338041 -33.268984 22.851632 0.000000 0.000000 0.000000 7.621339 -2.037009 -6.747143 -7.577983 3.932014 2.075236 9.307117 -4.630204 5.323540 -48.450490 -6.998102 41.625290 100.587848 72.236531 -91.072643 0.000000 0.000000 0.000000 
-4.425116 97.359833 -6.915611 0.000000 0.000000 0.000000 1.445409 -53.063480 4.475226 -34.230678 16.586554 25.547761 44.112463 -1.515456 -5.011061 -8.474953 8.435862 -13.511707 2.019012 0.926284 -2.345639 0.000000 0.000000 0.000000 0.673134 -50.310685 3.778766 -30.069071 -4.546696 -21.514365 47.184439 10.684431 -5.622243 -16.503216 -6.230929 30.079716 5.793745 4.966738 -12.035181 0.000000 0.000000 0.000000 -3.013199 -44.655196 0.336912 10.228902 -3.759588 -1.101205 7.028663 -1.443476 -6.928090 -0.015905 -0.355910 0.290194 0.000000 0.000000 0.000000 9.722767 0.398414 -4.610518 -4.413185 26.101884 2.063405 -37.697935 -10.443363 7.786768 0.000000 0.000000 0.000000 9.571148 -0.818305 -6.013243 1.571166 -6.457724 -5.861517 6.296242 -11.625557 1.832452 -43.938300 16.850017 -30.938769 35.498334 -34.995045 22.614405 0.000000 0.000000 0.000000 7.331451 -2.022292 -6.479863 -8.020911 4.006543 2.234623 9.792656 -3.484782 4.675823 -42.085952 -7.452000 41.145900 107.597923 71.871062 -98.778708 0.000000 0.000000 0.000000 
-5.281648 97.585190 -6.936821 0.000000 0.000000 0.000000 0.937908 -52.734388 3.847259 -33.594378 16.254327 25.454838 44.537488 -2.432501 -4.696151 -8.353204 7.632348 -13.312103 1.295775 0.843642 -2.299857 0.000000 0.000000 0.000000 0.276052 -50.086757 3.138759 -28.258579 -5.637775 -21.428487 46.362709 10.996290 -5.524955 -16.493587 -7.410527 30.609701 4.285309 4.875388 -11.446107 0.000000 0.000000 0.000000 -2.994702 -44.398374 0.166796 9.939936 -3.848469 -0.987584 6.818247 -1.521914 -6.528035 0.059240 -0.287195 0.189465 0.000000 0.000000 0.000000 9.161062 0.323354 -4.177757 -5.341418 26.627646 3.942156 -38.584251 -6.374580 7.042284 0.000000 0.000000 0.000000 9.273611 -0.884627 -5.646431 1.584450 -4.354334 -4.678044 5.447437 -11.685660 1.704942 -40.990974 17.771660 -28.072836 33.463921 -40.670300 22.284073 0.000000 0.000000 0.000000 6.937988 -2.103557 -6.017879 -8.523748 3.543304 2.133757 10.254672 -3.091626 4.003508 -33.771799 -7.376230 40.104719 110.297685 70.922253 -102.904784 0.000000 0.000000 0.000000 
-6.333751 98.426613 -6.633713 0.000000 0.000000 0.000000 0.333157 -51.998954 3.005756 -32.342725 15.781306 25.091856 43.829501 -3.388090 -4.331725 -7.963322 6.649434 -13.082272 0.277721 0.700049 -1.976284 0.000000 0.000000 0.000000 -0.143653 -49.592631 2.418689 -25.267211 -7.151029 -21.107873 44.250391 11.059264 -5.206507 -16.495703 -8.956492 31.031018 2.997935 4.648518 -10.845855 0.000000 0.000000 0.000000 -2.870819 -43.953907 -0.009770 9.586166 -3.743714 -0.950544 6.548709 -1.580363 -6.109019 0.223856 -0.204824 0.094329 0.000000 0.000000 0.000000 8.632206 0.301827 -3.726074 -5.865576 26.974801 6.242153 -39.291681 -0.991551 6.927013 0.000000 0.000000 0.000000 8.820662 -0.881815 -5.174710 1.404413 -1.397229 -2.921068 4.043711 -11.885196 1.745122 -37.648648 20.562025 -22.878465 30.680633 -49.587177 21.835556 0.000000 0.000000 0.000000 6.436266 -2.134949 -5.434379 -9.136877 2.508663 1.582532 10.478062 -4.223174 3.747077 -25.061011 -7.010841 38.373314 107.996199 69.850220 -102.679456 0.000000 0.000000 0.000000 
-7.565135 100.039619 -6.012791 0.000000 0.000000 0.000000 -0.225361 -50.817065 2.095095 -30.497286 15.309425 24.438806 41.725779 -4.158163 -4.002437 -7.355198 5.793485 -12.667656 -0.168021 0.488653 -1.571471 0.000000 0.000000 0.000000 -0.480603 -48.791009 1.671466 -21.197207 -9.029689 -20.466483 40.464896 10.835879 -4.561383 -16.574093 -10.610232 30.907706 2.885328 4.328981 -10.407981 0.000000 0.000000 0.000000 -2.444336 -43.323238 -0.099577 9.235883 -3.421607 -1.127788 6.130606 -1.509375 -5.719826 0.259445 -0.154299 0.033213 0.000000 0.000000 0.000000 8.265565 0.406708 -3.353143 -5.840750 26.844441 8.864146 -39.781040 4.217652 7.360471 0.000000 0.000000 0.000000 8.121150 -0.703319 -4.646217 0.880395 2.410376 -0.501034 2.555691 -11.923200 2.184527 -35.572530 24.985950 -15.919921 27.312299 -60.005575 20.882733 0.000000 0.000000 0.000000 5.856209 -2.048356 -4.814482 -9.906757 0.906449 0.573414 10.396394 -6.380926 3.444575 -17.379818 -6.764357 35.995131 102.381004 68.742603 -99.477512 0.000000 0.000000 0.000000 
-8.965256 102.304840 -5.160244 0.000000 0.000000 0.000000 -0.542457 -49.364581 1.291166 -28.314532 14.961232 23.658430 38.422270 -4.721798 -3.739285 -6.408245 5.194191 -12.189678 0.102602 0.238742 -1.094961 0.000000 0.000000 0.000000 -0.503043 -47.703042 1.074427 -16.432621 -11.121585 -19.481544 35.070009 10.510336 -3.687925 -16.427476 -11.969923 30.374275 3.601415 4.084126 -10.291871 0.000000 0.000000 0.000000 -1.813511 -42.484709 -0.119231 8.955665 -2.891590 -1.540618 5.489624 -1.275547 -5.356488 0.195409 -0.099409 0.011213 0.000000 0.000000 0.000000 8.065402 0.669022 -3.108304 -5.130027 26.241921 11.590614 -40.000501 8.246787 8.098040 0.000000 0.000000 0.000000 7.216182 -0.368605 -4.154055 -0.074979 6.730464 2.521035 1.281042 -12.217758 3.412484 -35.704551 30.012821 -7.840018 23.415473 -69.809444 18.984617 0.000000 0.000000 0.000000 5.273212 -1.806912 -4.218204 -10.822967 -1.163598 -0.809179 10.170182 -8.002676 2.943767 -11.010764 -7.345030 33.386159 96.127802 67.540305 -95.581695 0.000000 0.000000 0.000000 
-10.396518 104.990425 -4.140995 0.000000 0.000000 0.000000 -0.479955 -47.867110 0.713214 -26.061743 14.750036 22.788322 34.430628 -4.989185 -3.555710 -5.107456 4.961082 -11.625335 0.859397 -0.022188 -0.607878 0.000000 0.000000 0.000000 -0.236009 -46.669081 0.634583 -11.591237 -13.012876 -18.233060 28.581010 10.373886 -2.735436 -15.524796 -12.585706 29.992033 4.172322 4.048469 -10.510891 0.000000 0.000000 0.000000 -1.049585 -41.437457 -0.115236 8.742779 -2.205404 -2.137578 4.662528 -0.934202 -5.012031 0.132032 -0.041808 -0.035074 0.000000 0.000000 0.000000 7.950817 1.054595 -2.994819 -3.744172 25.330399 14.028565 -39.916363 10.509534 8.741137 0.000000 0.000000 0.000000 6.245816 -0.015741 -3.791673 -1.418290 11.006899 5.899212 0.480240 -12.373093 4.878105 -38.104372 34.230278 0.510178 16.767302 -76.280598 13.831662 0.000000 0.000000 0.000000 4.727486 -1.434643 -3.680640 -11.813193 -3.558124 -2.297277 9.920225 -9.186523 2.138130 -5.697983 -9.046370 31.046915 91.917066 66.462877 -93.220724 0.000000 0.000000 0.000000 
-11.800440 107.765045 -3.125221 0.000000 0.000000 0.000000 -0.157097 -46.487555 0.388753 -24.144644 14.666532 21.954784 30.474579 -5.078974 -3.386233 -3.578517 5.053299 -11.143221 1.532917 -0.238897 -0.117809 0.000000 0.000000 0.000000 0.070259 -45.752285 0.287468 -7.163843 -14.248737 -16.864777 22.043409 10.660254 -1.818017 -13.966176 -12.331395 29.849784 4.032562 4.237154 -10.814112 0.000000 0.000000 0.000000 -0.390785 -40.068290 -0.239029 8.650550 -1.422699 -2.806888 3.797634 -0.577342 -4.680315 0.107689 -0.003311 -0.071944 0.000000 0.000000 0.000000 7.836392 1.455874 -2.975507 -1.708626 24.361203 15.721680 -39.718725 11.219397 9.126930 0.000000 0.000000 0.000000 5.415221 0.257880 -3.573563 -3.032759 14.994700 9.428123 0.838938 -12.108565 6.301187 -41.817802 36.769217 8.059895 6.833250 -78.198440 5.025262 0.000000 0.000000 0.000000 4.371519 -1.031597 -3.240638 -12.700695 -6.043194 -3.606774 9.191810 -10.216774 1.447537 -1.305238 -12.118607 29.183612 89.865243 65.915137 -92.165220 0.000000 0.000000 0.000000 
-13.188130 110.205017 -2.159485 0.000000 0.000000 0.000000 0.171614 -45.245219 0.209102 -22.784401 14.610118 21.151658 27.182532 -5.039903 -3.179603 -2.143675 5.251651 -10.619194 1.630844 -0.397150 0.367100 0.000000 0.000000 0.000000 0.402167 -44.806201 0.114897 -3.563728 -14.380417 -15.558490 16.632943 11.370530 -1.011741 -12.318046 -11.533544 29.541323 3.097241 4.520109 -10.863852 0.000000 0.000000 0.000000 -0.062015 -38.388481 -0.536886 8.726534 -0.620619 -3.374343 3.031442 -0.272658 -4.320142 0.123715 0.011731 -0.060533 0.000000 0.000000 0.000000 7.691081 1.807217 -2.985965 1.018375 23.529735 16.394435 -39.614803 10.676200 9.027382 0.000000 0.000000 0.000000 4.913614 0.365690 -3.447189 -4.728102 18.487153 12.926158 1.989298 -10.991386 6.983941 -45.559189 37.540830 14.080205 0.624942 -76.481678 -0.389870 0.000000 0.000000 0.000000 4.259298 -0.660134 -2.864444 -13.441587 -8.408808 -4.703448 8.159633 -11.025955 1.131203 1.538015 -16.533509 27.504043 89.077681 66.105446 -91.562176 0.000000 0.000000 0.000000 
-14.470354 111.962616 -1.309017 0.000000 0.000000 0.000000 0.309778 -43.882043 0.089082 -22.099588 14.447093 20.280778 25.084628 -4.835897 -2.929190 -0.970795 5.439727 -9.833528 1.454331 -0.481455 0.617553 0.000000 0.000000 0.000000 0.565709 -43.576989 0.021179 -0.833303 -13.186671 -14.528038 13.277229 12.250322 -0.373888 -11.024945 -10.773958 28.534526 1.488293 4.740062 -10.388538 0.000000 0.000000 0.000000 -0.126904 -36.465622 -0.983560 8.941873 0.131659 -3.720342 2.441955 -0.049448 -3.931524 0.107911 0.073165 -0.042566 0.000000 0.000000 0.000000 7.471964 2.064640 -2.981111 4.448723 22.900600 15.839759 -39.757520 9.213306 8.404433 0.000000 0.000000 0.000000 4.714721 0.368558 -3.332639 -6.314270 21.381120 16.217367 3.357541 -9.298156 7.102614 -48.819211 37.128522 18.555361 -0.999676 -72.714740 -1.347352 0.000000 0.000000 0.000000 4.326323 -0.382831 -2.570864 -13.998481 -10.621463 -5.641445 7.160426 -11.866678 1.085904 1.391084 -21.852089 25.085799 89.524888 67.352017 -91.527438 0.000000 0.000000 0.000000 
